<svg id="Layer_1" data-name="Layer 1" xmlns="http://www.w3.org/2000/svg" viewBox="0 0 48 48"><defs><style>.cls-1{fill:#e50000;}.cls-1,.cls-2,.cls-3,.cls-4{isolation:isolate;}.cls-1,.cls-4{opacity:0.1;}.cls-2,.cls-3,.cls-4{fill:none;stroke:#e50000;}.cls-2{stroke-opacity:0.5;stroke-dasharray:1 1;}.cls-2,.cls-3{stroke-width:0.2px;opacity:0.5;}.cls-4{stroke-width:4px;}.cls-5{fill:#12131a;fill-rule:evenodd;}</style></defs><rect class="cls-1" width="48" height="48"/><rect class="cls-2" x="8" y="4" width="32" height="40"/><rect class="cls-2" x="4" y="8" width="40" height="32"/><rect class="cls-3" x="6" y="6" width="36" height="36"/><circle class="cls-3" cx="24" cy="24" r="20"/><rect class="cls-4" x="2" y="2" width="44" height="44"/><path class="cls-5" d="M40,14,30,4H8V44H40Zm-2.83,0L30,6.83V14ZM28,6H10V42H38V16H28ZM18.48,34.73v-17h7.27A5,5,0,0,1,28,18.2a5.58,5.58,0,0,1,1.75,1.32,6.27,6.27,0,0,1,1.15,1.84,5.53,5.53,0,0,1,.42,2.09,5.87,5.87,0,0,1-.4,2.16,6.05,6.05,0,0,1-1.1,1.85,5.18,5.18,0,0,1-1.72,1.3,5.1,5.1,0,0,1-2.23.48H22.42v5.49Zm3.94-8.93h3.21a1.5,1.5,0,0,0,1.2-.6,2.63,2.63,0,0,0,.51-1.75,3.14,3.14,0,0,0-.16-1,2,2,0,0,0-.42-.72,1.72,1.72,0,0,0-.6-.42,1.77,1.77,0,0,0-.67-.13H22.42Z"/></svg>